<?xml version="1.0" standalone="no"?>
<!DOCTYPE svg PUBLIC "-//W3C//DTD SVG 20010904//EN"
 "http://www.w3.org/TR/2001/REC-SVG-20010904/DTD/svg10.dtd">
<svg version="1.0" xmlns="http://www.w3.org/2000/svg"
 width="125.000000pt" height="125.000000pt" viewBox="0 0 125.000000 125.000000"
 preserveAspectRatio="xMidYMid meet">
<metadata>
Created by potrace 1.10, written by Peter Selinger 2001-2011
</metadata>
<g transform="translate(0.000000,125.000000) scale(0.100000,-0.100000)"
fill="#000000" stroke="none">
<path d="M505 1190 c-27 -5 -88 -28 -134 -51 -293 -145 -408 -508 -251 -793
88 -159 233 -260 419 -294 83 -14 98 -14 181 1 250 45 432 227 477 477 15 83
15 98 1 181 -40 223 -181 389 -393 463 -58 20 -226 29 -300 16z m244 -45 c187
-45 341 -190 395 -374 20 -67 21 -217 2 -286 -48 -182 -200 -332 -381 -380
-76 -19 -204 -19 -280 1 -135 35 -272 144 -333 265 -110 220 -73 460 97 630
84 84 163 125 296 153 46 9 144 5 204 -9z"/>
<path d="M438 993 c-8 -10 -31 -43 -51 -74 -44 -70 -105 -130 -180 -177 -92
-56 -103 -96 -67 -237 25 -97 56 -152 132 -231 99 -103 217 -154 359 -154 224
0 415 149 483 379 18 62 21 168 6 223 -17 58 -41 70 -135 62 -158 -12 -305 42
-432 160 -39 36 -77 66 -85 66 -8 0 -22 -8 -30 -17z m42 -21 c0 -8 73 -83 120
-123 27 -22 109 -62 175 -84 55 -19 190 -28 248 -17 33 7 49 6 54 -2 4 -6 9
-52 11 -102 3 -70 0 -105 -13 -145 -69 -206 -243 -339 -445 -339 -162 0 -316
86 -399 224 -40 66 -71 171 -71 237 0 47 0 47 58 79 73 41 190 160 222 228 22
47 40 66 40 44z"/>
<path d="M405 615 c-54 -53 -8 -136 65 -120 60 13 71 108 14 134 -37 16 -52
14 -79 -14z m68 -37 c6 -19 -3 -38 -18 -38 -18 0 -28 17 -21 35 7 18 33 20 39
3z"/>
<path d="M756 619 c-36 -28 -36 -80 0 -108 15 -12 34 -21 44 -21 34 0 70 39
70 75 0 36 -36 75 -70 75 -10 0 -29 -9 -44 -21z m63 -43 c9 -10 8 -16 -4 -26
-19 -16 -41 1 -32 24 8 20 21 20 36 2z"/>
</g>
</svg>
