<?xml version="1.0" standalone="no"?>
<!DOCTYPE svg PUBLIC "-//W3C//DTD SVG 20010904//EN"
 "http://www.w3.org/TR/2001/REC-SVG-20010904/DTD/svg10.dtd">
<svg version="1.0" xmlns="http://www.w3.org/2000/svg"
 width="300.000000pt" height="198.000000pt" viewBox="0 0 300.000000 198.000000"
 preserveAspectRatio="xMidYMid meet">
<metadata>
Created by potrace 1.10, written by Peter Selinger 2001-2011
</metadata>
<g transform="translate(0.000000,198.000000) scale(0.100000,-0.100000)"
fill="#000000" stroke="none">
<path d="M2086 1804 c-112 -25 -191 -69 -277 -154 -127 -127 -177 -261 -165
-440 17 -244 202 -454 446 -505 89 -19 130 -19 219 0 145 30 259 104 347 225
73 99 104 196 104 325 0 198 -92 365 -262 476 -111 72 -281 102 -412 73z m297
-64 c166 -62 292 -208 328 -379 16 -78 6 -213 -21 -286 -58 -154 -196 -279
-355 -321 -69 -19 -209 -18 -276 2 -274 81 -429 347 -364 623 40 168 179 317
347 370 100 32 240 29 341 -9z"/>
<path d="M2013 1608 c-11 -13 -32 -44 -47 -69 -32 -56 -101 -122 -178 -172
-67 -43 -78 -60 -78 -124 0 -120 65 -259 163 -348 200 -182 477 -177 668 14
101 101 149 213 149 348 0 74 -17 133 -41 149 -8 4 -68 9 -134 10 -172 2 -259
36 -388 154 -36 33 -71 60 -79 60 -8 0 -24 -10 -35 -22z m222 -170 c103 -52
152 -63 282 -62 l121 0 6 -29 c11 -55 6 -159 -10 -215 -34 -118 -142 -242
-255 -291 -289 -127 -629 96 -629 414 0 47 2 51 33 64 80 35 194 146 234 231
l26 55 71 -71 c39 -39 94 -82 121 -96z"/>
<path d="M1985 1245 c-30 -30 -31 -54 -4 -89 39 -49 119 -24 119 37 0 38 -7
50 -37 66 -33 17 -51 14 -78 -14z m63 -48 c2 -10 -3 -17 -12 -17 -18 0 -29 16
-21 31 9 14 29 6 33 -14z"/>
<path d="M2326 1249 c-32 -25 -34 -66 -6 -97 42 -44 120 -13 120 48 0 31 -39
70 -70 70 -10 0 -29 -9 -44 -21z m59 -50 c0 -7 -8 -15 -17 -17 -18 -3 -25 18
-11 32 10 10 28 1 28 -15z"/>
<path d="M120 1740 c0 -11 7 -20 15 -20 60 0 148 -104 209 -245 80 -186 147
-339 161 -369 18 -39 122 -279 143 -328 8 -22 22 -38 31 -38 14 1 107 172 226
417 16 35 33 63 37 63 4 0 11 -15 16 -32 10 -33 151 -372 175 -418 7 -14 19
-25 27 -25 7 0 31 41 55 95 23 52 47 106 53 120 18 38 118 270 176 410 130
307 147 334 221 350 17 3 31 13 33 23 3 15 -11 17 -157 17 -154 0 -161 -1
-161 -20 0 -13 7 -20 20 -20 28 0 77 -26 88 -46 8 -15 -36 -136 -102 -276 -39
-84 -150 -338 -165 -381 -10 -26 -22 -48 -27 -48 -4 0 -14 16 -21 36 -7 21
-22 56 -33 79 -48 101 -110 250 -109 265 0 9 35 86 77 171 82 164 102 188 169
199 24 4 38 12 38 21 0 13 -25 15 -155 15 -131 0 -155 -2 -155 -15 0 -10 13
-17 40 -20 83 -11 83 -23 8 -183 -65 -140 -70 -147 -79 -121 -13 42 -48 123
-82 192 -41 83 -38 105 17 110 23 2 31 8 31 23 0 18 -9 19 -175 19 -168 0
-175 -1 -175 -20 0 -17 7 -20 40 -20 82 0 88 -9 229 -329 50 -114 50 -114 32
-140 -10 -14 -52 -93 -94 -176 l-76 -150 -14 35 c-8 19 -26 62 -40 95 -13 33
-77 181 -141 328 -64 148 -116 275 -116 282 0 19 42 46 83 54 18 4 32 13 32
21 0 13 -33 15 -202 18 -198 2 -203 2 -203 -18z m254 -26 c12 -4 13 -11 5 -31
-12 -31 -4 -56 58 -197 25 -55 72 -164 105 -241 33 -77 74 -173 91 -214 18
-41 45 -88 60 -104 l28 -31 -17 -38 c-14 -32 -20 -36 -30 -26 -7 7 -66 137
-132 288 -66 151 -129 295 -140 320 -11 25 -34 74 -50 110 -16 36 -45 85 -65
108 -21 24 -34 48 -31 53 6 10 94 12 118 3z m446 -20 c0 -34 112 -272 141
-300 16 -15 29 -36 29 -47 0 -21 85 -227 131 -318 15 -31 40 -66 55 -78 26
-20 26 -23 15 -60 -22 -76 -35 -71 -81 36 -23 54 -60 139 -82 190 -22 50 -51
102 -64 114 -14 13 -24 34 -24 49 0 23 -104 271 -158 377 -12 23 -22 45 -22
48 0 3 14 5 30 5 21 0 30 -5 30 -16z"/>
<path d="M835 562 c-3 -3 -5 -20 -5 -39 0 -32 1 -33 40 -33 39 0 39 0 37 37
-2 35 -4 38 -34 39 -18 1 -35 -1 -38 -4z"/>
<path d="M970 563 c0 -2 -1 -92 -1 -200 l0 -198 35 -3 36 -3 0 72 0 72 52 -71
c50 -70 52 -72 95 -72 45 0 53 9 27 31 -9 7 -36 39 -60 70 l-43 57 20 18 c12
11 39 40 61 67 l40 47 -44 0 c-42 0 -46 -3 -96 -66 l-52 -66 0 124 0 124 -35
0 c-19 0 -35 -1 -35 -3z"/>
<path d="M1257 563 c-2 -1 -1 -18 1 -38 4 -32 7 -35 38 -35 33 0 34 1 34 38 0
37 -1 38 -35 38 -20 0 -37 -1 -38 -3z"/>
<path d="M339 356 l45 -193 38 0 c21 0 41 4 44 9 3 5 21 68 39 141 18 73 36
125 39 117 3 -8 20 -69 37 -135 16 -65 32 -122 35 -126 2 -4 23 -6 45 -6 l42
2 43 190 c24 104 44 191 44 192 0 2 -17 3 -39 3 l-39 0 -26 -137 c-15 -75 -28
-138 -30 -140 -2 -2 -17 54 -35 124 -18 71 -34 134 -36 141 -3 7 -21 12 -43
12 l-38 0 -34 -140 c-32 -133 -50 -173 -50 -113 0 15 -10 78 -22 140 l-22 113
-41 0 -41 0 45 -194z"/>
<path d="M1397 358 l2 -193 36 -3 36 -3 -2 83 -2 83 61 0 c34 1 63 3 65 5 2 3
7 17 11 33 l6 27 -70 0 -70 0 0 45 0 45 85 0 c61 0 85 3 85 13 0 6 3 22 6 35
6 22 6 22 -122 22 l-129 0 2 -192z"/>
<path d="M837 444 c-4 -4 -7 -70 -7 -146 l0 -139 36 3 35 3 0 140 0 140 -28 3
c-16 2 -32 0 -36 -4z"/>
<path d="M1260 304 l0 -144 35 0 35 0 0 144 0 144 -35 0 -35 0 0 -144z"/>
<path d="M1693 443 c-13 -3 -26 -16 -32 -35 -14 -38 -11 -41 23 -28 15 5 40
10 54 10 28 0 72 -24 72 -39 0 -5 -28 -14 -62 -20 -103 -18 -139 -82 -79 -142
38 -38 83 -39 116 -3 l25 27 0 -27 c0 -22 4 -26 30 -26 l30 0 0 105 c0 59 -5
115 -12 130 -21 46 -83 64 -165 48z m117 -166 c0 -27 -31 -57 -61 -57 -16 0
-29 2 -29 4 0 2 -3 11 -6 19 -3 8 2 22 11 31 20 19 85 22 85 3z"/>
<path d="M1991 433 c-54 -28 -76 -66 -76 -127 1 -37 7 -61 23 -83 52 -73 212
-87 212 -18 0 23 -2 23 -53 18 -46 -5 -57 -2 -81 19 -36 31 -40 88 -8 120 21
21 75 30 111 18 13 -5 36 48 25 59 -2 3 -30 6 -62 8 -41 3 -66 -1 -91 -14z"/>
<path d="M2233 430 c-42 -25 -63 -68 -63 -125 0 -64 23 -103 73 -126 42 -18
111 -24 155 -13 17 5 22 14 22 41 0 30 -2 33 -19 23 -35 -18 -119 -12 -141 10
-35 35 -24 40 75 40 l95 0 0 36 c0 108 -107 170 -197 114z m107 -50 c38 -38
27 -50 -45 -50 -62 0 -65 1 -55 19 12 23 49 51 67 51 7 0 22 -9 33 -20z"/>
<path d="M2530 443 c-34 -13 -60 -47 -60 -80 0 -41 23 -65 84 -88 63 -24 60
-50 -4 -49 -25 0 -53 4 -62 8 -15 7 -18 3 -18 -23 0 -38 22 -51 90 -51 44 0
56 5 81 29 39 40 39 81 -1 114 -16 14 -43 28 -59 32 -39 8 -60 33 -40 46 19
12 66 11 89 -1 16 -8 19 -5 25 21 5 22 3 34 -6 40 -15 9 -95 11 -119 2z"/>
</g>
</svg>
